HIERARCHY
ROOT hip
{
  OFFSET 0 0 0
  CHANNELS 6 Xposition Yposition Zposition Zrotation Yrotation Xrotation
  JOINT abdomen
  {
    OFFSET 0 20.6881 -0.73152
    CHANNELS 3 Zrotation Xrotation Yrotation
    JOINT chest
    {
      OFFSET 0 11.7043 -0.48768
      CHANNELS 3 Zrotation Xrotation Yrotation
      JOINT neck
      {
        OFFSET 0 22.1894 -2.19456
        CHANNELS 3 Zrotation Xrotation Yrotation
        JOINT head
        {
          OFFSET -0.24384 7.07133 1.2192
          CHANNELS 3 Zrotation Xrotation Yrotation
          JOINT leftEye
          {
            OFFSET 4.14528 8.04674 8.04672
            CHANNELS 3 Zrotation Xrotation Yrotation
            End Site
            {
              OFFSET 1 0 0
            }
          }
          JOINT rightEye
          {
            OFFSET -3.6576 8.04674 8.04672
            CHANNELS 3 Zrotation Xrotation Yrotation
            End Site
            {
              OFFSET 1 0 0
            }
          }
        }
      }
      JOINT rCollar
      {
        OFFSET -2.68224 19.2634 -4.8768
        CHANNELS 3 Zrotation Xrotation Yrotation
        JOINT rShldr
        {
          OFFSET -8.77824 -1.95073 1.46304
          CHANNELS 3 Zrotation Xrotation Yrotation
          JOINT rForeArm
          {
            OFFSET -28.1742 -1.7115 0.48768
            CHANNELS 3 Zrotation Xrotation Yrotation
            JOINT rHand
            {
              OFFSET -22.5879 0.773209 7.07136
              CHANNELS 3 Zrotation Xrotation Yrotation
              JOINT rThumb1
              {
                OFFSET -1.2192 -0.487915 3.41376
                CHANNELS 3 Zrotation Xrotation Yrotation
                JOINT rThumb2
                {
                  OFFSET -3.37035 -0.52449 3.41376
                  CHANNELS 3 Zrotation Xrotation Yrotation
                  End Site
                  {
                    OFFSET -1.78271 -1.18214 1.43049
                  }
                }
              }
              JOINT rIndex1
              {
                OFFSET -7.75947 0.938293 5.60832
                CHANNELS 3 Zrotation Xrotation Yrotation
                JOINT rIndex2
                {
                  OFFSET -2.54057 -0.884171 1.56538
                  CHANNELS 3 Zrotation Xrotation Yrotation
                  End Site
                  {
                    OFFSET -1.62519 -0.234802 1.16502
                  }
                }
              }
              JOINT rMid1
              {
                OFFSET -8.24714 1.18213 3.41376
                CHANNELS 3 Zrotation Xrotation Yrotation
                JOINT rMid2
                {
                  OFFSET -3.10165 -0.590103 1.0647
                  CHANNELS 3 Zrotation Xrotation Yrotation
                  End Site
                  {
                    OFFSET -2.48547 -0.328903 0.83742
                  }
                }
              }
              JOINT rRing1
              {
                OFFSET -8.82822 0.546677 1.51678
                CHANNELS 3 Zrotation Xrotation Yrotation
                JOINT rRing2
                {
                  OFFSET -2.60934 -0.819778 -0.0198488
                  CHANNELS 3 Zrotation Xrotation Yrotation
                  End Site
                  {
                    OFFSET -2.33842 -0.294052 0.168128
                  }
                }
              }
              JOINT rPinky1
              {
                OFFSET -8.27202 -0.0477905 -0.4584
                CHANNELS 3 Zrotation Xrotation Yrotation
                JOINT rPinky2
                {
                  OFFSET -1.82734 -0.647385 -0.700984
                  CHANNELS 3 Zrotation Xrotation Yrotation
                  End Site
                  {
                    OFFSET -1.69225 -0.51767 -0.607171
                  }
                }
              }
            }
          }
        }
      }
      JOINT lCollar
      {
        OFFSET 2.68224 19.2634 -4.8768
        CHANNELS 3 Zrotation Xrotation Yrotation
        JOINT lShldr
        {
          OFFSET 8.77824 -1.95073 1.46304
          CHANNELS 3 Zrotation Xrotation Yrotation
          JOINT lForeArm
          {
            OFFSET 28.1742 -1.7115 0.48768
            CHANNELS 3 Zrotation Xrotation Yrotation
            JOINT lHand
            {
              OFFSET 22.5879 0.773209 7.07136
              CHANNELS 3 Zrotation Xrotation Yrotation
              JOINT lThumb1
              {
                OFFSET 1.2192 -0.487915 3.41376
                CHANNELS 3 Zrotation Xrotation Yrotation
                JOINT lThumb2
                {
                  OFFSET 3.37035 -0.52449 3.41376
                  CHANNELS 3 Zrotation Xrotation Yrotation
                  End Site
                  {
                    OFFSET 1.78271 -1.18214 1.43049
                  }
                }
              }
              JOINT lIndex1
              {
                OFFSET 7.75947 0.938293 5.60832
                CHANNELS 3 Zrotation Xrotation Yrotation
                JOINT lIndex2
                {
                  OFFSET 2.54057 -0.884171 1.56538
                  CHANNELS 3 Zrotation Xrotation Yrotation
                  End Site
                  {
                    OFFSET 1.62519 -0.234802 1.16502
                  }
                }
              }
              JOINT lMid1
              {
                OFFSET 8.24714 1.18213 3.41376
                CHANNELS 3 Zrotation Xrotation Yrotation
                JOINT lMid2
                {
                  OFFSET 3.10165 -0.590103 1.0647
                  CHANNELS 3 Zrotation Xrotation Yrotation
                  End Site
                  {
                    OFFSET 2.48547 -0.328903 0.83742
                  }
                }
              }
              JOINT lRing1
              {
                OFFSET 8.82822 0.546677 1.51678
                CHANNELS 3 Zrotation Xrotation Yrotation
                JOINT lRing2
                {
                  OFFSET 2.60934 -0.819778 -0.0198488
                  CHANNELS 3 Zrotation Xrotation Yrotation
                  End Site
                  {
                    OFFSET 2.33842 -0.294052 0.168128
                  }
                }
              }
              JOINT lPinky1
              {
                OFFSET 8.27202 -0.0477905 -0.4584
                CHANNELS 3 Zrotation Xrotation Yrotation
                JOINT lPinky2
                {
                  OFFSET 1.82734 -0.647385 -0.700984
                  CHANNELS 3 Zrotation Xrotation Yrotation
                  End Site
                  {
                    OFFSET 1.69225 -0.51767 -0.607171
                  }
                }
              }
            }
          }
        }
      }
    }
  }
  JOINT rButtock
  {
    OFFSET -8.77824 4.35084 1.2192
    CHANNELS 3 Zrotation Xrotation Yrotation
    JOINT rThigh
    {
      OFFSET 0 -1.70687 -2.19456
      CHANNELS 3 Zrotation Xrotation Yrotation
      JOINT rShin
      {
        OFFSET 0 -36.8199 0.73152
        CHANNELS 3 Zrotation Xrotation Yrotation
        JOINT rFoot
        {
          OFFSET 0.73152 -45.1104 -5.12064
          CHANNELS 3 Zrotation Xrotation Yrotation
          End Site
          {
            OFFSET -1.1221 -3.69964 12.103
          }
        }
      }
    }
  }
  JOINT lButtock
  {
    OFFSET 8.77824 4.35084 1.2192
    CHANNELS 3 Zrotation Xrotation Yrotation
    JOINT lThigh
    {
      OFFSET 0 -1.70687 -2.19456
      CHANNELS 3 Zrotation Xrotation Yrotation
      JOINT lShin
      {
        OFFSET 0 -36.8199 0.73152
        CHANNELS 3 Zrotation Xrotation Yrotation
        JOINT lFoot
        {
          OFFSET -0.73152 -45.1104 -5.12064
          CHANNELS 3 Zrotation Xrotation Yrotation
          End Site
          {
            OFFSET 1.1221 -3.69964 12.103
          }
        }
      }
    }
  }
}
MOTION
Frames:	4
Frame Time:	0.00833333
0.457959 84.9173 -159.982 0.0 0.0 0.0 -0.140625 -0.000295015 -0.00400526 -0.0387669 -0.000394548 -0.00671564 7.67156e-16 -7.95139e-16 -2.17421e-17 2.18042e-15 3.18055e-15 -6.52262e-17 -0.0 0.0 0.0 -0.0 0.0 0.0 3.96259e-16 3.88251e-19 1.49089e-16 9.90982e-15 2.04997e-16 7.95139e-16 1.31496e-13 -3.95581e-14 0.0 1.52347e-12 3.80673e-14 -4.13472e-14 3.58881e-12 -8.57895e-15 -9.54166e-14 6.19373e-12 -1.90833e-14 -1.67774e-13 3.59363e-12 -7.15625e-15 -9.85972e-14 7.73091 5.47488 0.417314 3.5899e-12 -8.15017e-15 -8.90555e-14 2.90554 0.965183 0.102902 3.60296e-12 -8.44835e-15 -9.22361e-14 10.2786 0.731801 0.0259123 3.58866e-12 -7.95139e-15 -8.5875e-14 2.22167 -0.733487 -0.20892 3.98906e-16 3.88251e-19 -1.49089e-16 5.19529e-15 -2.04997e-16 -1.19271e-15 1.33633e-13 3.73715e-14 9.54166e-15 1.5192e-12 -4.84041e-14 -3.81667e-14 3.58689e-12 -2.54624e-14 -8.90555e-14 6.19572e-12 -4.45278e-14 -1.52667e-13 3.57971e-12 -2.42517e-14 -8.90555e-14 -7.73091 5.47488 -0.417314 3.58677e-12 -2.51463e-14 -9.22361e-14 -2.90554 0.965183 -0.102902 3.57634e-12 -2.49475e-14 -9.06458e-14 -10.2786 0.731801 -0.0259123 3.58846e-12 -2.42517e-14 -9.54166e-14 -2.22167 -0.733487 0.20892 -2.03217e-16 0.0 -3.88251e-19 0.415455 -2.89234 -0.0363695 -0.00657581 -0.313961 -0.0578455 -0.521687 3.20536 0.125419 2.03217e-16 0.0 3.88251e-19 -0.62935 -3.43714 0.0497311 0.00497787 0.672915 0.0432304 0.523141 2.76331 -0.116511
0.65584 83.446 -161.139 -0.5277 3.6983 2.6537 -0.125725 -0.643888 -0.0391866 0.656447 -0.71742 -0.0100952 1.21954 -0.549287 -0.53557 -1.94275 -0.261384 -1.45705 -0.0 0.0 0.0 -0.0 0.0 0.0 3.89308e-15 -2.34856e-15 -3.24295e-14 20.9115 2.08891 -1.71388 -3.51823 -1.48065 5.61652 0.00268937 -1.1514 -0.161701 5.25747e-11 -2.76757e-10 -2.29851e-10 9.17197e-11 -4.79827e-10 -3.97994e-10 5.25784e-11 -2.76754e-10 -2.29857e-10 7.73091 5.47488 0.417314 5.25747e-11 -2.76756e-10 -2.29846e-10 2.90554 0.965183 0.102902 5.25875e-11 -2.76756e-10 -2.29848e-10 10.2786 0.731801 0.0259123 5.2574e-11 -2.76756e-10 -2.29841e-10 2.22167 -0.733487 -0.20892 3.88695e-15 -2.34716e-15 -3.27447e-14 -21.1233 7.12189 1.25089 4.5271 -2.12202 -6.99895 -0.00851464 -2.04842 0.287224 -3.86106e-11 9.25381e-11 7.68053e-14 -6.68409e-11 1.60097e-10 2.83515e-13 -3.86162e-11 9.25404e-11 8.02841e-14 -7.73091 5.47488 -0.417314 -3.86095e-11 9.25393e-11 7.5364e-14 -2.90554 0.965183 -0.102902 -3.86185e-11 9.25392e-11 7.69543e-14 -10.2786 0.731801 -0.0259123 -3.86074e-11 9.25395e-11 7.02205e-14 -2.22167 -0.733487 0.20892 -2.03217e-16 0.0 -3.88251e-19 0.0776302 -5.64263 -0.374366 0.0166656 7.99856 0.0979037 -1.18864 -0.355124 -6.60517 2.03217e-16 0.0 3.88251e-19 -0.267232 -5.53428 -0.35336 -0.00732898 7.63101 -0.0724131 0.861913 -0.249954 4.46131
0.659476 83.4472 -161.138 -0.5192 3.7148 2.647 -0.109555 -1.32866 -0.0921644 1.40224 -1.47414 -0.0179639 2.49562 -1.12181 -1.09455 -4.02223 -0.541464 -2.98206 -0.0 0.0 0.0 -0.0 0.0 0.0 7.71376e-15 -3.87761e-15 -6.80496e-14 43.1389 4.31386 -3.52832 -6.92535 -2.99963 11.5689 -0.00155021 -2.37417 -0.333648 1.06815e-10 -5.72588e-10 -4.88766e-10 1.86407e-10 -9.92748e-10 -8.46283e-10 1.06818e-10 -5.72584e-10 -4.88776e-10 7.73091 5.47488 0.417314 1.06814e-10 -5.72586e-10 -4.88762e-10 2.90554 0.965183 0.102902 1.06827e-10 -5.72586e-10 -4.88764e-10 10.2786 0.731801 0.0259123 1.06814e-10 -5.72586e-10 -4.88755e-10 2.22167 -0.733487 -0.20892 7.69875e-15 -3.87464e-15 -6.8385e-14 -43.8174 14.6219 2.64846 8.7549 -4.26065 -14.4303 0.00485813 -4.2051 0.590873 -8.11013e-11 2.02691e-10 5.91444e-12 -1.40399e-10 3.50648e-10 1.05499e-11 -8.11052e-11 2.02694e-10 5.9216e-12 -7.73091 5.47488 -0.417314 -8.1099e-11 2.02693e-10 5.91484e-12 -2.90554 0.965183 -0.102902 -8.11064e-11 2.02692e-10 5.91643e-12 -10.2786 0.731801 -0.0259123 -8.10964e-11 2.02692e-10 5.90748e-12 -2.22167 -0.733487 0.20892 -2.03217e-16 0.0 -3.88251e-19 -0.317194 -8.54971 -0.735482 -0.00966414 16.7871 0.272216 -2.7962 -4.00665 -13.7539 2.03217e-16 0.0 3.88251e-19 0.0810286 -7.7493 -0.783348 0.0111233 14.9849 -0.200105 1.74183 -3.3902 9.31793
0.669539 83.448 -161.137 -0.499 3.7752 2.6408 -0.098297 -1.93107 -0.109604 2.04662 -2.15147 -0.0168639 3.6278 -1.64728 -1.6073 -5.8681 -0.782123 -4.37152 -0.0 0.0 0.0 -0.0 0.0 0.0 1.08867e-14 -7.04647e-15 -9.75866e-14 63.1108 6.24424 -5.16896 -9.69575 -4.2715 16.8922 -0.0114589 -3.45409 -0.485888 1.50547e-10 -8.30253e-10 -6.89362e-10 2.62772e-10 -1.43944e-09 -1.19365e-09 1.50548e-10 -8.30248e-10 -6.89374e-10 7.73091 5.47488 0.417314 1.50544e-10 -8.30251e-10 -6.89358e-10 2.90554 0.965183 0.102902 1.50557e-10 -8.3025e-10 -6.89359e-10 10.2786 0.731801 0.0259123 1.50545e-10 -8.30251e-10 -6.8935e-10 2.22167 -0.733487 -0.20892 1.0863e-14 -7.04225e-15 -9.7936e-14 -64.3604 21.3234 3.99778 12.0576 -5.98689 -21.1029 0.0363692 -6.14464 0.866097 -1.23005e-10 2.77665e-10 4.08527e-13 -2.12914e-10 4.8038e-10 1.15588e-12 -1.23008e-10 2.7767e-10 4.18963e-13 -7.73091 5.47488 -0.417314 -1.23002e-10 2.77668e-10 4.10563e-13 -2.90554 0.965183 -0.102902 -1.23008e-10 2.77667e-10 4.12155e-13 -10.2786 0.731801 -0.0259123 -1.22999e-10 2.77667e-10 4.01495e-13 -2.22167 -0.733487 0.20892 -2.03217e-16 0.0 -3.88251e-19 -0.697097 -11.1417 -1.06509 -0.0829467 24.623 0.447209 -4.99361 -7.02663 -20.224 2.03217e-16 0.0 3.88251e-19 0.367291 -9.72687 -1.17126 0.0573512 21.5469 -0.324443 2.97597 -6.10162 13.6956
